<?xml version="1.0" encoding="utf-8"?>
<!-- Generator: Adobe Illustrator 21.0.0, SVG Export Plug-In . SVG Version: 6.00 Build 0)  -->
<svg version="1.1" id="Calque_1" xmlns="http://www.w3.org/2000/svg" xmlns:xlink="http://www.w3.org/1999/xlink" x="0px" y="0px"
	 width="20px" height="20px" viewBox="0 0 20 20" style="enable-background:new 0 0 20 20;" xml:space="preserve">
<style type="text/css">
	.st0{fill:#5AB0EE;}
</style>
<g>
	<path class="st0" d="M10,0C4.5,0,0,4.5,0,10c0,5.5,4.5,10,10,10s10-4.5,10-10C20,4.5,15.5,0,10,0z M15.5,7.8l-7.2,7.1l-3.9-3.8
		C4,10.6,4,9.8,4.5,9.3c0.5-0.5,1.3-0.5,1.8,0l2.1,2L13.7,6c0.5-0.5,1.3-0.5,1.8,0C16,6.5,16,7.3,15.5,7.8z"/>
</g>
</svg>
