<?xml version="1.0" encoding="UTF-8"?>
<svg width="17px" height="16px" viewBox="0 0 17 16" version="1.1" xmlns="http://www.w3.org/2000/svg" xmlns:xlink="http://www.w3.org/1999/xlink">
    <!-- Generator: Sketch 41.2 (35397) - http://www.bohemiancoding.com/sketch -->
    <title>Group 4</title>
    <desc>Created with Sketch.</desc>
    <defs>
        <filter x="-50%" y="-50%" width="200%" height="200%" filterUnits="objectBoundingBox" id="filter-1">
            <feOffset dx="0" dy="-1" in="SourceAlpha" result="shadowOffsetOuter1"></feOffset>
            <feColorMatrix values="0 0 0 0 0   0 0 0 0 0   0 0 0 0 0  0 0 0 0.3 0" type="matrix" in="shadowOffsetOuter1" result="shadowMatrixOuter1"></feColorMatrix>
            <feMerge>
                <feMergeNode in="shadowMatrixOuter1"></feMergeNode>
                <feMergeNode in="SourceGraphic"></feMergeNode>
            </feMerge>
        </filter>
    </defs>
    <g id="Piste-Graphique" stroke="none" stroke-width="1" fill="none" fill-rule="evenodd">
        <g id="Inscription" transform="translate(-911.000000, -1048.000000)" fill="#FFFFFF">
            <g id="form-occupants" transform="translate(166.000000, 1028.000000)">
                <g id="Group-4" filter="url(#filter-1)" transform="translate(745.000000, 21.000000)">
                    <g id="Group-2">
                        <path d="M7.17240549,0.179089943 C6.62277067,0.179089943 7.09841619,0.347645184 6.80245898,0.389783994 C6.50650177,0.431922805 7.19354529,0.347645184 6.30567367,0.516200425 C5.41780204,0.695290368 5.23811374,1.83303824 5.19583414,2.25442635 C5.15355454,2.67581445 5.14298464,2.80223088 5.16412444,3.43431303 C5.24868364,3.81356232 4.82588763,3.81356232 4.82588763,3.81356232 C4.28682271,3.78195822 4.20226351,5.43590652 4.20226351,5.43590652 C4.27625281,5.84675992 4.17055381,6.04691926 4.96329633,6.36296034 C5.33324284,7.4269653 6.29510377,7.96423513 6.29510377,7.96423513 C6.29510377,7.96423513 6.33738337,8.64899079 6.35852317,9.13358711 C6.27396397,9.101983 6.21054456,10.3872167 3.7688976,10.7453966 C1.31668073,11.1035765 0.851605121,11.8936792 0.386529509,12.3361367 C-0.0785461034,12.7785942 0.00601309883,14.875 0.00601309883,14.875 L10.1108378,14.8328612 C9.09612734,13.9584809 8.44079352,12.6627125 8.44079352,11.2194582 C8.44079352,10.0711756 8.85301963,9.01770538 9.54006315,8.19599858 L9.55063305,8.04851275 C9.55063305,8.04851275 10.3433756,7.39536119 10.7133221,6.33135623 C11.3052365,5.96264164 11.5272044,5.90996813 11.6329034,5.47804533 C11.6329034,5.47804533 11.8971509,3.85570113 11.2629569,3.85570113 C11.2629569,3.85570113 10.5336338,3.89783994 10.618193,3.51859065 C10.7027522,3.13934136 10.6710425,3.01292493 10.6287629,2.59153683 C10.5864833,2.17014873 10.8401609,0.958657932 9.95228926,0.790102691 C9.34980495,0.684755666 9.54006315,0.853310907 9.24410594,0.811172096 C8.94814874,0.769033286 8.59934203,0 8.04970721,0 L7.17240549,0.179089943 L7.17240549,0.179089943 Z" id="Shape"></path>
                        <path d="M13.28125,7.4375 C11.230625,7.4375 9.5625,9.105625 9.5625,11.15625 C9.5625,13.206875 11.230625,14.875 13.28125,14.875 C15.331875,14.875 17,13.206875 17,11.15625 C17,9.105625 15.331875,7.4375 13.28125,7.4375 L13.28125,7.4375 Z M13.8125,11.6875 L13.8125,13.8125 L12.75,13.8125 L12.75,11.6875 L10.625,11.6875 L10.625,10.625 L12.75,10.625 L12.75,8.5 L13.8125,8.5 L13.8125,10.625 L15.9375,10.625 L15.9375,11.6875 L13.8125,11.6875 L13.8125,11.6875 Z" id="Shape"></path>
                    </g>
                </g>
            </g>
        </g>
    </g>
</svg>