<svg xmlns="http://www.w3.org/2000/svg" width="18" height="18" viewBox="0 0 18 18"><title>Shape</title><path d="M3.09 10.5c.105.69.27 1.305.51 1.83l-2.385 2.385 2.07 2.07L5.67 14.4c.525.24 1.14.405 1.83.495V18h3v-3.105c.69-.09 1.305-.255 1.83-.495l2.385 2.385 2.07-2.07-2.4-2.385c.255-.525.42-1.14.51-1.83H18v-3h-3.105c-.09-.69-.255-1.305-.51-1.83l2.4-2.385-2.07-2.07L12.33 3.6c-.525-.24-1.14-.405-1.83-.51V0h-3v3.09c-.69.105-1.305.27-1.83.51L3.285 1.215l-2.07 2.07L3.6 5.67c-.24.525-.405 1.14-.51 1.83H0v3h3.09zM6 10.125v-2.25L7.875 6h2.25L12 7.875v2.25L10.125 12h-2.25L6 10.125z" fill="#fefefe" fill-rule="evenodd"/></svg>