<?xml version="1.0" encoding="UTF-8"?>
<svg width="18px" height="18px" viewBox="0 0 18 18" version="1.1" xmlns="http://www.w3.org/2000/svg" xmlns:xlink="http://www.w3.org/1999/xlink">
    <!-- Generator: Sketch 41.2 (35397) - http://www.bohemiancoding.com/sketch -->
    <title>Shape</title>
    <desc>Created with Sketch.</desc>
    <defs></defs>
    <g id="Piste-Graphique" stroke="none" stroke-width="1" fill="none" fill-rule="evenodd">
        <g id="Home" transform="translate(-1291.000000, -405.000000)" fill="#AE3E5E">
            <g id="detail-box" transform="translate(361.000000, 388.000000)">
                <path d="M933.09,27.5 C933.195,28.19 933.36,28.805 933.6,29.33 L931.215,31.715 L933.285,33.785 L935.67,31.4 C936.195,31.64 936.81,31.805 937.5,31.895 L937.5,32 L937.5,35 L940.5,35 L940.5,32 L940.5,31.895 C941.19,31.805 941.805,31.64 942.33,31.4 L944.715,33.785 L946.785,31.715 L944.385,29.33 C944.64,28.805 944.805,28.19 944.895,27.5 L946.5,27.5 L948,27.5 L948,24.5 L946.5,24.5 L944.895,24.5 C944.805,23.81 944.64,23.195 944.385,22.67 L946.785,20.285 L944.715,18.215 L942.33,20.6 C941.805,20.36 941.19,20.195 940.5,20.09 L940.5,20 L940.5,17 L937.5,17 L937.5,20 L937.5,20.09 C936.81,20.195 936.195,20.36 935.67,20.6 L933.285,18.215 L931.215,20.285 L933.6,22.67 C933.36,23.195 933.195,23.81 933.09,24.5 L930,24.5 L930,27.5 L933.09,27.5 L933.09,27.5 Z M936,27.125 L936,24.875 L937.875,23 L940.125,23 L942,24.875 L942,27.125 L940.125,29 L937.875,29 L936,27.125 L936,27.125 Z" id="Shape"></path>
            </g>
        </g>
    </g>
</svg>