<?xml version="1.0" encoding="utf-8"?>
<!-- Generator: Adobe Illustrator 21.0.0, SVG Export Plug-In . SVG Version: 6.00 Build 0)  -->
<svg version="1.1" id="Calque_1" xmlns="http://www.w3.org/2000/svg" xmlns:xlink="http://www.w3.org/1999/xlink" x="0px" y="0px"
	 width="24px" height="21.3px" viewBox="0 0 24 21.3" style="enable-background:new 0 0 24 21.3;" xml:space="preserve">
<style type="text/css">
	.st0{fill:#E7235A;}
</style>
<g>
	<path class="st0" d="M23.6,18.2L13.8,1.3c-1-1.7-2.6-1.7-3.7,0L0.4,18.2c-1,1.7-0.2,3.2,1.8,3.2h19.5
		C23.8,21.3,24.6,19.9,23.6,18.2z M13,18.2c-0.3,0.3-0.6,0.4-0.9,0.4c-0.4,0-0.7-0.1-1-0.4c-0.3-0.3-0.4-0.6-0.4-1
		c0-0.4,0.1-0.7,0.4-0.9c0.3-0.3,0.6-0.4,1-0.4c0.4,0,0.7,0.1,0.9,0.4c0.3,0.3,0.4,0.6,0.4,0.9C13.3,17.7,13.2,18,13,18.2z
		 M12.3,14.9h-0.6C10.9,10,10.5,7.4,10.5,7c0-0.5,0.2-0.9,0.5-1.1c0.3-0.3,0.7-0.4,1.1-0.4c0.4,0,0.8,0.2,1.1,0.5
		c0.3,0.3,0.4,0.7,0.4,1.1C13.5,7.4,13.1,10,12.3,14.9z"/>
</g>
</svg>
