<?xml version="1.0" encoding="utf-8"?>
<!-- Generator: Adobe Illustrator 21.0.0, SVG Export Plug-In . SVG Version: 6.00 Build 0)  -->
<svg version="1.1" xmlns="http://www.w3.org/2000/svg" xmlns:xlink="http://www.w3.org/1999/xlink" x="0px" y="0px" width="11.6px"
	 height="13.8px" viewBox="0 0 11.6 13.8" style="enable-background:new 0 0 11.6 13.8;" xml:space="preserve">
<style type="text/css">
	.st0{fill:#FFFFFF;}
</style>
<g id="Calque_1">
	<path d="M11.1,0H3C2.8,0,2.7,0.1,2.6,0.2L0.2,2.5C0.1,2.6,0,2.8,0,2.9v10.1c0,0.3,0.2,0.6,0.6,0.6H11c0.3,0,0.5-0.2,0.6-0.5l0,0
		V5.3V0.6C11.6,0.2,11.4,0,11.1,0z M5,8.8h4.9l-0.8-1C8.9,7.6,9,7.2,9.2,7C9.5,6.8,9.8,6.9,10,7.1L11.4,9c0,0,0,0,0,0c0,0,0,0,0,0
		c0,0,0,0,0,0c0,0,0,0,0,0c0,0,0,0,0,0c0,0,0,0,0,0c0,0,0,0,0,0c0,0,0,0,0,0c0,0,0,0,0,0c0,0,0,0,0,0c0,0,0,0,0,0c0,0,0,0,0,0
		c0,0,0,0,0,0c0,0,0,0,0,0c0,0,0,0,0,0c0,0,0,0,0,0c0,0,0,0,0,0c0,0,0,0,0,0c0,0,0,0,0,0c0,0,0,0,0,0c0,0,0,0,0,0c0,0,0,0,0,0
		L10,11.6c-0.1,0.1-0.3,0.2-0.4,0.2c-0.1,0-0.2,0-0.3-0.1c-0.2-0.2-0.3-0.5-0.1-0.8l0.8-1H5c-0.3,0-0.6-0.2-0.6-0.6
		C4.4,9.1,4.6,8.8,5,8.8z"/>
</g>
<g id="Calque_1_-_copie">
	<path class="st0" d="M11.1,0.1H3c-0.1,0-0.3,0.1-0.4,0.2L0.2,2.7C0.1,2.8,0,2.9,0,3.1v10.1c0,0.3,0.2,0.6,0.6,0.6H11
		c0.3,0,0.5-0.2,0.6-0.5l0,0V5.4V0.7C11.6,0.4,11.4,0.1,11.1,0.1z M5,9h4.9l-0.8-1C8.9,7.7,9,7.4,9.2,7.2C9.5,7,9.8,7,10,7.3
		l1.4,1.9c0,0,0,0,0,0c0,0,0,0,0,0c0,0,0,0,0,0c0,0,0,0,0,0c0,0,0,0,0,0c0,0,0,0,0,0c0,0,0,0,0,0c0,0,0,0,0,0c0,0,0,0,0,0
		c0,0,0,0,0,0c0,0,0,0,0,0c0,0,0,0,0,0c0,0,0,0,0,0c0,0,0,0,0,0c0,0,0,0,0,0c0,0,0,0,0,0c0,0,0,0,0,0c0,0,0,0,0,0c0,0,0,0,0,0
		c0,0,0,0,0,0c0,0,0,0,0,0c0,0,0,0,0,0L10,11.7C9.9,11.9,9.7,12,9.6,12c-0.1,0-0.2,0-0.3-0.1c-0.2-0.2-0.3-0.5-0.1-0.8l0.8-1H5
		c-0.3,0-0.6-0.2-0.6-0.6C4.4,9.2,4.6,9,5,9z"/>
</g>
</svg>
