<svg xmlns="http://www.w3.org/2000/svg" width="11.6" height="13.8" viewBox="0 0 11.6 13.8" id="svg2"><style id="style4">.st0{fill:#fff}</style><g id="Calque_1"><path d="M11.1 0H3c-.2 0-.3.1-.4.2L.2 2.5c-.1.1-.2.3-.2.4V13c0 .3.2.6.6.6H11c.3 0 .5-.2.6-.5V.6c0-.4-.2-.6-.5-.6zM5 8.8h4.9l-.8-1c-.2-.2-.1-.6.1-.8.3-.2.6-.1.8.1L11.4 9 10 11.6c-.1.1-.3.2-.4.2-.1 0-.2 0-.3-.1-.2-.2-.3-.5-.1-.8l.8-1H5c-.3 0-.6-.2-.6-.6 0-.2.2-.5.6-.5z" id="path7"/></g><g id="Calque_1_-_copie"><path class="st0" d="M11.1.1H3c-.1 0-.3.1-.4.2L.2 2.7c-.1.1-.2.2-.2.4v10.1c0 .3.2.6.6.6H11c.3 0 .5-.2.6-.5V.7c0-.3-.2-.6-.5-.6zM5 9h4.9l-.8-1c-.2-.3-.1-.6.1-.8.3-.2.6-.2.8.1l1.4 1.9-1.4 2.5c-.1.2-.3.3-.4.3-.1 0-.2 0-.3-.1-.2-.2-.3-.5-.1-.8l.8-1H5c-.3 0-.6-.2-.6-.6 0-.3.2-.5.6-.5z" id="path10" fill="#fff" fill-opacity=".352"/></g></svg>