<?xml version="1.0" encoding="UTF-8"?>
<svg width="14px" height="16px" viewBox="0 0 14 16" version="1.1" xmlns="http://www.w3.org/2000/svg" xmlns:xlink="http://www.w3.org/1999/xlink">
    <!-- Generator: Sketch 41.2 (35397) - http://www.bohemiancoding.com/sketch -->
    <title>Group 2</title>
    <desc>Created with Sketch.</desc>
    <defs>
        <filter x="-50%" y="-50%" width="200%" height="200%" filterUnits="objectBoundingBox" id="filter-1">
            <feOffset dx="0" dy="-1" in="SourceAlpha" result="shadowOffsetOuter1"></feOffset>
            <feColorMatrix values="0 0 0 0 0   0 0 0 0 0   0 0 0 0 0  0 0 0 0.3 0" type="matrix" in="shadowOffsetOuter1" result="shadowMatrixOuter1"></feColorMatrix>
            <feMerge>
                <feMergeNode in="shadowMatrixOuter1"></feMergeNode>
                <feMergeNode in="SourceGraphic"></feMergeNode>
            </feMerge>
        </filter>
    </defs>
    <g id="Piste-Graphique" stroke="none" stroke-width="1" fill="none" fill-rule="evenodd">
        <g id="Home" transform="translate(-1190.000000, -94.000000)" fill="#FFFFFF">
            <g id="header" transform="translate(340.000000, 64.000000)">
                <g id="Group-2" filter="url(#filter-1)" transform="translate(850.000000, 31.000000)">
                    <path d="M0,7.8519329 C0,11.8037929 3.13,15 7,15 C10.87,15 14,11.8037929 14,7.8519329 C14,4.61487965 11.89,1.8781911 9,1 L9,3.16484318 C10.77,3.96134209 12,5.75857039 12,7.8519329 C12,10.6703136 9.76,12.9576951 7,12.9576951 C4.24,12.9576951 2,10.6703136 2,7.8519329 C2,5.75857039 3.23,3.96134209 5,3.16484318 L5,1 C2.11,1.8781911 0,4.61487965 0,7.8519329 L0,7.8519329 Z" id="Shape"></path>
                    <path d="M7,0 C7.5,0 8,0.5 8,1 L8,7 C8,7.5 7.5,8 7,8 C6.5,8 6,7.5 6,7 L6,1 C6,0.5 6.5,0 7,0 Z" id="Shape"></path>
                </g>
            </g>
        </g>
    </g>
</svg>