<?xml version="1.0" encoding="utf-8"?>
<!-- Generator: Adobe Illustrator 21.0.0, SVG Export Plug-In . SVG Version: 6.00 Build 0)  -->
<svg version="1.1" xmlns="http://www.w3.org/2000/svg" xmlns:xlink="http://www.w3.org/1999/xlink" x="0px" y="0px" width="16.7px"
	 height="17.6px" viewBox="0 0 16.7 17.6" style="enable-background:new 0 0 16.7 17.6;" xml:space="preserve">
<style type="text/css">
	.st0{opacity:0.3;}
	.st1{fill:#FFFFFF;}
</style>
<g id="Calque_1" class="st0">
	<title>edit</title>
	<path d="M0,16.6l1.4-4.2l2.8,2.8L0,16.6z M16.5,2.9c0.1-0.1,0.1-0.4,0-0.5l-2.3-2.3c-0.1-0.1-0.4-0.1-0.5,0l-1.1,1.1l2.8,2.8
		L16.5,2.9C16.5,2.9,16.5,2.9,16.5,2.9z M14.7,4.8l-2.8-2.8l-9.8,9.8l2.8,2.8L14.7,4.8z"/>
</g>
<g id="Calque_1_-_copie">
	<title>edit</title>
	<path class="st1" d="M0,17.6l1.4-4.2l2.8,2.8L0,17.6z M16.5,3.9c0.1-0.1,0.1-0.4,0-0.5l-2.3-2.3c-0.1-0.1-0.4-0.1-0.5,0l-1.1,1.1
		l2.8,2.8L16.5,3.9C16.5,3.9,16.5,3.9,16.5,3.9z M14.7,5.8l-2.8-2.8l-9.8,9.8l2.8,2.8L14.7,5.8z"/>
</g>
</svg>
