<?xml version="1.0" encoding="utf-8"?>
<!-- Generator: Adobe Illustrator 21.0.0, SVG Export Plug-In . SVG Version: 6.00 Build 0)  -->
<svg version="1.1"
	 id="Calque_1" xmlns:cc="http://creativecommons.org/ns#" xmlns:dc="http://purl.org/dc/elements/1.1/" xmlns:inkscape="http://www.inkscape.org/namespaces/inkscape" xmlns:rdf="http://www.w3.org/1999/02/22-rdf-syntax-ns#" xmlns:sodipodi="http://sodipodi.sourceforge.net/DTD/sodipodi-0.dtd" xmlns:svg="http://www.w3.org/2000/svg"
	 xmlns="http://www.w3.org/2000/svg" xmlns:xlink="http://www.w3.org/1999/xlink" x="0px" y="0px" width="15.4px" height="16.7px"
	 viewBox="0 0 15.4 16.7" style="enable-background:new 0 0 15.4 16.7;" xml:space="preserve">
<style type="text/css">
	.st0{opacity:0.3;}
	.st1{fill:#FFFFFF;}
</style>
<g transform="translate(1772.6239,591.92557)">
	<path class="st0" d="M-1772.6-584.1v-7.8l1.1,0l1.1,0l0,2.1l0,2.1h3.8h3.8l0-2.1l0-2.1h1h1l1.9,1.9l1.9,1.9l0,6l0,6l-7.7,0l-7.7,0
		V-584.1L-1772.6-584.1z M-1767.1-590.4v-1.6h1.1h1.1v1.6v1.6h-1.1h-1.1V-590.4L-1767.1-590.4z"/>
	<g transform="translate(1772.6239,591.92557)">
		<path class="st1" d="M-3545.2-1175v-7.8l1.1,0l1.1,0l0,2.1l0,2.1h3.8h3.8l0-2.1l0-2.1h1h1l1.9,1.9l1.9,1.9l0,6l0,6l-7.7,0l-7.7,0
			V-1175L-3545.2-1175z M-3539.7-1181.3v-1.6h1.1h1.1v1.6v1.6h-1.1h-1.1V-1181.3L-3539.7-1181.3z"/>
	</g>
</g>
</svg>
