<?xml version="1.0" encoding="utf-8"?>
<!-- Generator: Adobe Illustrator 21.0.0, SVG Export Plug-In . SVG Version: 6.00 Build 0)  -->
<svg version="1.1" id="Calque_1" xmlns="http://www.w3.org/2000/svg" xmlns:xlink="http://www.w3.org/1999/xlink" x="0px" y="0px"
	 width="20px" height="20px" viewBox="0 0 20 20" style="enable-background:new 0 0 20 20;" xml:space="preserve">
<style type="text/css">
	.st0{fill:#E7235A;}
	.st1{fill:#FFFFFF;}
</style>
<g>
	<path class="st0" d="M10,0C4.5,0,0,4.5,0,10c0,5.5,4.5,10,10,10s10-4.5,10-10C20,4.5,15.5,0,10,0z"/>
</g>
<path class="st1" d="M15.4,6.4l-9,9c-0.5,0.5-1.3,0.5-1.8,0l0,0c-0.5-0.5-0.5-1.3,0-1.8l9-9c0.5-0.5,1.3-0.5,1.8,0l0,0
	C15.9,5.1,15.9,5.9,15.4,6.4z"/>
<path class="st1" d="M13.6,15.4l-9-9c-0.5-0.5-0.5-1.3,0-1.8l0,0c0.5-0.5,1.3-0.5,1.8,0l9,9c0.5,0.5,0.5,1.3,0,1.8l0,0
	C14.9,15.9,14.1,15.9,13.6,15.4z"/>
</svg>
